<svg xmlns="http://www.w3.org/2000/svg" viewBox="0 0 48 48" fill="none">
  <!-- Hexagon background -->
  <path d="M24 2 L42 12 L42 36 L24 46 L6 36 L6 12 Z" fill="#1a7a4a"/>
  <!-- Network grid lines -->
  <line x1="24" y1="2" x2="24" y2="46" stroke="#f59e0b" stroke-width="1.2" stroke-opacity="0.35"/>
  <line x1="6" y1="12" x2="42" y2="36" stroke="#f59e0b" stroke-width="1.2" stroke-opacity="0.35"/>
  <line x1="42" y1="12" x2="6" y2="36" stroke="#f59e0b" stroke-width="1.2" stroke-opacity="0.35"/>
  <!-- Connection lines -->
  <line x1="24" y1="14" x2="35" y2="20" stroke="#f59e0b" stroke-width="1.5" stroke-opacity="0.7"/>
  <line x1="24" y1="14" x2="13" y2="20" stroke="#f59e0b" stroke-width="1.5" stroke-opacity="0.7"/>
  <line x1="35" y1="20" x2="35" y2="30" stroke="#f59e0b" stroke-width="1.5" stroke-opacity="0.7"/>
  <line x1="13" y1="20" x2="13" y2="30" stroke="#f59e0b" stroke-width="1.5" stroke-opacity="0.7"/>
  <line x1="35" y1="30" x2="24" y2="36" stroke="#f59e0b" stroke-width="1.5" stroke-opacity="0.7"/>
  <line x1="13" y1="30" x2="24" y2="36" stroke="#f59e0b" stroke-width="1.5" stroke-opacity="0.7"/>
  <line x1="24" y1="14" x2="24" y2="36" stroke="#f59e0b" stroke-width="1.5" stroke-opacity="0.5"/>
  <!-- Node dots -->
  <circle cx="24" cy="14" r="3.5" fill="#f59e0b"/>
  <circle cx="35" cy="20" r="2.5" fill="#ffffff" fill-opacity="0.9"/>
  <circle cx="13" cy="20" r="2.5" fill="#ffffff" fill-opacity="0.9"/>
  <circle cx="35" cy="30" r="2.5" fill="#ffffff" fill-opacity="0.9"/>
  <circle cx="13" cy="30" r="2.5" fill="#ffffff" fill-opacity="0.9"/>
  <circle cx="24" cy="36" r="3.5" fill="#f59e0b"/>
  <!-- Center pulse ring -->
  <circle cx="24" cy="25" r="4" fill="#f59e0b" fill-opacity="0.25"/>
  <circle cx="24" cy="25" r="2.5" fill="#f59e0b"/>
</svg>
